<?xml version="1.0" encoding="utf-8"?>
<svg version="1.1" id="svg2" width="302.36267" height="264.56668" viewBox="0 0 302.36267 264.56668" xmlns="http://www.w3.org/2000/svg">
  <defs id="defs6">
    <clipPath clipPathUnits="userSpaceOnUse" id="clipPath18">
      <path d="M 0,198.425 H 226.772 V 0 H 0 Z" id="path16"/>
    </clipPath>
  </defs>
  <g id="g10" transform="matrix(2.182398, 0, 0, -2.182398, -97.206337, 420.2565)" style="">
    <g id="g12">
      <g id="g14" clip-path="url(#clipPath18)">
        <g id="g20" transform="translate(25.6189,18.4254)"/>
        <g id="g24" transform="translate(56.9001,18.4254)"/>
        <g id="g28" transform="translate(81.2014,18.4254)"/>
        <g id="g32" transform="translate(98.3943,17.9605)"/>
        <g id="g36" transform="translate(132.4016,18.4254)"/>
        <g id="g40" transform="translate(152.592,18.4254)"/>
        <g id="g44" transform="translate(184.8088,19.6099)"/>
        <g id="g48" transform="translate(207.5354,19.6099)"/>
        <g id="g52" transform="translate(116.9221,145.3951)">
          <path d="m 0,0 c 0,-0.665 -0.539,-1.205 -1.205,-1.205 h -7.904 c -15.479,0 -28.027,12.468 -28.027,27.846 v 7.846 c 0,0.665 0.539,1.204 1.205,1.204 h 7.903 C -12.613,35.691 0,23.161 0,7.845 Z" style="fill:#71cbf4;fill-opacity:1;fill-rule:nonzero;stroke:none" id="path54"/>
        </g>
        <g id="g56" transform="translate(115.9143,98.1861)">
          <path d="m 0,0 h -19.807 c -0.833,0 -1.297,-0.941 -0.808,-1.61 4.669,-6.383 12.11,-10.631 20.579,-10.955 0.568,-0.022 1.043,0.449 1.043,1.014 v 10.55 C 1.007,-0.448 0.557,0 0,0" style="fill:#ffffff;fill-opacity:1;fill-rule:nonzero;stroke:none" id="path58"/>
        </g>
        <g id="g60" transform="translate(115.9143,119.4493)">
          <path d="m 0,0 h -23.925 c -0.459,0 -0.871,-0.306 -0.984,-0.748 -0.535,-2.089 -0.836,-4.268 -0.836,-6.522 0,-2.253 0.301,-4.432 0.836,-6.52 0.113,-0.442 0.525,-0.749 0.984,-0.749 H 0 c 0.557,0 1.007,0.448 1.007,1.001 V -1.001 C 1.007,-0.448 0.557,0 0,0" style="fill:#ffffff;fill-opacity:1;fill-rule:nonzero;stroke:none" id="path62"/>
        </g>
        <g id="g64" transform="translate(115.9143,126.8648)">
          <path d="m 0,0 h -19.807 c -0.833,0 -1.297,0.941 -0.808,1.61 4.669,6.383 12.11,10.631 20.579,10.955 0.568,0.021 1.043,-0.449 1.043,-1.014 V 1.001 C 1.007,0.448 0.557,0 0,0" style="fill:#ffffff;fill-opacity:1;fill-rule:nonzero;stroke:none" id="path66"/>
        </g>
        <g id="g68" transform="translate(133.9895,143.23)">
          <path d="M 0,0 C 0,1.832 1.506,3.318 3.361,3.318 5.219,3.318 6.724,1.832 6.724,0 6.724,-1.832 5.219,-3.318 3.361,-3.318 1.506,-3.318 0,-1.832 0,0 m 11.761,-0.263 c 0,7.831 -6.45,14.239 -14.331,14.239 h -9.584 c -0.666,0 -1.205,-0.54 -1.205,-1.205 V 3.255 c 0,-7.83 6.448,-14.237 14.331,-14.237 h 9.584 c 0.665,0 1.205,0.539 1.205,1.205 z" style="fill:#ffffff;fill-opacity:1;fill-rule:nonzero;stroke:none" id="path70"/>
        </g>
      </g>
    </g>
  </g>
</svg>