<?xml version="1.0" encoding="utf-8"?>
<svg version="1.1" id="svg2" width="302.36267" height="264.56668" viewBox="0 0 302.36267 264.56668" xmlns="http://www.w3.org/2000/svg">
  <defs id="defs6">
    <clipPath clipPathUnits="userSpaceOnUse" id="clipPath18">
      <path d="M 0,198.425 H 226.772 V 0 H 0 Z" id="path16"/>
    </clipPath>
  </defs>
  <g id="g10" transform="matrix(1.3333333,0,0,-1.3333333,0,264.56667)">
    <g id="g12">
      <g id="g14" clip-path="url(#clipPath18)">
        <g id="g20" transform="translate(25.8791,18.1129)"/>
        <g id="g24" transform="translate(57.1604,18.1129)"/>
        <g id="g28" transform="translate(81.4612,18.1129)"/>
        <g id="g32" transform="translate(98.654,17.648)"/>
        <g id="g36" transform="translate(132.6623,18.1129)"/>
        <g id="g40" transform="translate(152.8518,18.1129)"/>
        <g id="g44" transform="translate(185.0686,19.2974)"/>
        <g id="g48" transform="translate(207.7952,19.2974)"/>
        <g id="g52" transform="translate(116.4719,145.4078)">
          <path d="M 4.907 -30.797 C 4.907 -31.792 4.1 -32.599 3.105 -32.599 L -8.716 -32.599 C -31.864 -32.599 -50.63 -13.954 -50.63 9.045 L -50.63 20.777 C -50.63 21.771 -49.823 22.579 -48.828 22.579 L -37.009 22.579 C -13.955 22.579 4.907 3.839 4.907 -19.065 Z" style="fill: rgb(113, 203, 244); fill-opacity: 1; fill-rule: nonzero; stroke: none;" id="path54"/>
        </g>
        <g id="g56" transform="translate(115.4739,98.6255)">
          <path d="M 4.399 -54.615 L -25.222 -54.615 C -26.469 -54.615 -27.163 -56.023 -26.431 -57.024 C -19.448 -66.569 -8.32 -72.921 4.345 -73.407 C 5.194 -73.44 5.905 -72.735 5.905 -71.888 L 5.905 -56.112 C 5.905 -55.285 5.23 -54.615 4.399 -54.615" style="fill: rgb(15, 37, 47); fill-opacity: 1; fill-rule: nonzero; stroke: none;" id="path58"/>
        </g>
        <g id="g60" transform="translate(115.4739,119.6964)">
          <path d="M 4.399 -43.887 L -31.381 -43.887 C -32.067 -43.887 -32.683 -44.345 -32.852 -45.007 C -33.652 -48.13 -34.102 -51.389 -34.102 -54.759 C -34.102 -58.129 -33.652 -61.389 -32.852 -64.51 C -32.683 -65.172 -32.067 -65.631 -31.381 -65.631 L 4.399 -65.631 C 5.23 -65.631 5.905 -64.961 5.905 -64.134 L 5.905 -45.385 C 5.905 -44.558 5.23 -43.887 4.399 -43.887" style="fill: rgb(15, 37, 47); fill-opacity: 1; fill-rule: nonzero; stroke: none;" id="path62"/>
        </g>
        <g id="g64" transform="translate(115.4739,127.0455)">
          <path d="M 4.399 -40.146 L -25.222 -40.146 C -26.469 -40.146 -27.163 -38.739 -26.431 -37.739 C -19.448 -28.192 -8.32 -21.84 4.345 -21.354 C 5.194 -21.324 5.905 -22.026 5.905 -22.873 L 5.905 -38.649 C 5.905 -39.476 5.23 -40.146 4.399 -40.146" style="fill: rgb(15, 37, 47); fill-opacity: 1; fill-rule: nonzero; stroke: none;" id="path66"/>
        </g>
        <g id="g68" transform="translate(134.7981,143.2623)">
          <path d="M 14.237 -31.89 C 14.237 -29.149 16.487 -26.928 19.264 -26.928 C 22.041 -26.928 24.291 -29.149 24.291 -31.89 C 24.291 -34.63 22.041 -36.852 19.264 -36.852 C 16.487 -36.852 14.237 -34.63 14.237 -31.89 M 31.823 -32.283 C 31.823 -20.573 22.18 -10.99 10.392 -10.99 L -3.942 -10.99 C -4.936 -10.99 -5.742 -11.796 -5.742 -12.792 L -5.742 -27.021 C -5.742 -38.732 3.9 -48.313 15.689 -48.313 L 30.021 -48.313 C 31.017 -48.313 31.823 -47.506 31.823 -46.511 Z" style="fill: rgb(15, 37, 47); fill-opacity: 1; fill-rule: nonzero; stroke: none;" id="path70"/>
        </g>
      </g>
    </g>
  </g>
</svg>