<?xml version="1.0" standalone="no"?>
<!DOCTYPE svg PUBLIC "-//W3C//DTD SVG 20010904//EN"
 "http://www.w3.org/TR/2001/REC-SVG-20010904/DTD/svg10.dtd">
<svg version="1.0" xmlns="http://www.w3.org/2000/svg"
 width="604.000000pt" height="604.000000pt" viewBox="0 0 604.000000 604.000000"
 preserveAspectRatio="xMidYMid meet">
<metadata>
Created by potrace 1.14, written by Peter Selinger 2001-2017
</metadata>
<g transform="translate(0.000000,604.000000) scale(0.100000,-0.100000)"
fill="#000000" stroke="none">
<path d="M1563 5152 c-6 -4 -16 -19 -20 -32 -10 -29 -9 -395 1 -490 33 -307
199 -608 446 -810 23 -19 50 -39 59 -44 9 -5 18 -12 21 -16 7 -9 172 -102 185
-104 6 -1 16 -5 22 -9 32 -20 200 -69 288 -84 17 -3 148 -7 292 -10 246 -4
262 -4 280 14 18 18 19 35 17 254 -1 128 -4 250 -7 269 -3 19 -9 53 -12 75 -4
22 -13 59 -21 83 -8 23 -14 49 -14 57 0 39 -137 313 -162 323 -4 2 -8 10 -8
17 0 8 -6 18 -13 22 -6 4 -24 24 -39 44 -40 54 -156 163 -233 219 -131 95
-344 184 -515 216 -53 9 -553 15 -567 6z"/>
<path d="M3533 4122 c-6 -4 -50 -7 -97 -6 -126 1 -120 15 -119 -274 0 -130 4
-257 7 -281 36 -257 242 -471 501 -522 27 -6 164 -10 304 -10 211 0 257 2 269
15 21 21 20 505 -1 586 -54 201 -170 345 -347 427 -99 46 -151 56 -326 58 -89
1 -165 5 -171 8 -5 3 -14 3 -20 -1z m588 -494 c49 -27 73 -76 66 -134 -6 -59
-30 -92 -82 -115 -98 -43 -196 17 -201 122 -6 115 114 185 217 127z"/>
<path d="M3019 3336 c-2 -2 -22 -6 -44 -9 -152 -18 -340 -94 -492 -198 -130
-90 -289 -263 -277 -303 4 -11 9 -23 11 -26 3 -3 209 -6 459 -6 454 -1 455 -1
468 20 20 33 16 504 -4 516 -15 9 -112 14 -121 6z"/>
<path d="M2036 2448 c-8 -13 -17 -36 -20 -53 -4 -16 -9 -43 -13 -60 -10 -42
-9 -310 0 -365 15 -83 28 -120 45 -128 9 -5 257 -8 550 -8 480 1 535 3 546 17
18 25 16 580 -3 603 -12 14 -65 16 -552 16 l-539 0 -14 -22z"/>
<path d="M2272 1543 c-4 -1 -19 -4 -33 -7 -34 -7 -42 -37 -19 -73 33 -54 168
-189 248 -246 136 -98 331 -183 462 -202 25 -3 53 -8 63 -11 10 -3 43 -7 73
-9 91 -5 90 -11 89 270 0 151 -5 247 -11 259 -10 17 -34 18 -437 20 -235 0
-430 0 -435 -1z"/>
</g>
</svg>
